<svg width="685" height="112" viewBox="0 0 685 112" fill="none" xmlns="http://www.w3.org/2000/svg">
<path d="M162.4 97V78L163.2 76V34.9L169.3 38.2L140.1 76.9L133 71.6H185.2V83.4H127.4V71.6L162.8 25H178V97H162.4ZM221.307 98C215.307 98 209.94 96.4333 205.207 93.3C200.54 90.1 196.874 85.7 194.207 80.1C191.54 74.4333 190.207 67.9667 190.207 60.7C190.207 53.4333 191.54 47.0667 194.207 41.6C196.874 36.0667 200.54 31.7667 205.207 28.7C209.94 25.5667 215.307 24 221.307 24C227.374 24 232.74 25.5667 237.407 28.7C242.074 31.7667 245.74 36.0667 248.407 41.6C251.074 47.0667 252.407 53.4333 252.407 60.7C252.407 68.0333 251.074 74.5 248.407 80.1C245.74 85.7 242.04 90.1 237.307 93.3C232.64 96.4333 227.307 98 221.307 98ZM221.307 85.2C224.707 85.2 227.507 84.0667 229.707 81.8C231.907 79.5333 233.54 76.5333 234.607 72.8C235.674 69.0667 236.207 65 236.207 60.6C236.207 56.2 235.674 52.2 234.607 48.6C233.54 45 231.907 42.1333 229.707 40C227.507 37.8667 224.707 36.8 221.307 36.8C217.907 36.8 215.107 37.9 212.907 40.1C210.707 42.2333 209.074 45.1 208.007 48.7C206.94 52.3 206.407 56.2667 206.407 60.6C206.407 65.0667 206.94 69.1667 208.007 72.9C209.074 76.6333 210.707 79.6333 212.907 81.9C215.174 84.1 217.974 85.2 221.307 85.2ZM292.38 97V78L293.18 76V34.9L299.28 38.2L270.08 76.9L262.98 71.6H315.18V83.4H257.38V71.6L292.78 25H307.98V97H292.38ZM342.23 97V46H356.93V58H357.23V97H342.23ZM377.73 97V65.4C377.73 62.6 376.997 60.5 375.53 59.1C374.13 57.7 372.064 57 369.33 57C366.997 57 364.897 57.5333 363.03 58.6C361.23 59.6667 359.797 61.1333 358.73 63C357.73 64.8667 357.23 67.0667 357.23 69.6L355.93 57.3C357.597 53.5667 360.03 50.6 363.23 48.4C366.497 46.1333 370.497 45 375.23 45C380.897 45 385.23 46.6 388.23 49.8C391.23 52.9333 392.73 57.1667 392.73 62.5V97H377.73ZM418.984 98C415.384 98 412.284 97.2333 409.684 95.7C407.151 94.1 405.218 92 403.884 89.4C402.551 86.7333 401.884 83.7667 401.884 80.5V46H416.884V77.6C416.884 80.4 417.584 82.5 418.984 83.9C420.384 85.3 422.351 86 424.884 86C427.151 86 429.151 85.4667 430.884 84.4C432.618 83.3333 433.984 81.8667 434.984 80C436.051 78.0667 436.584 75.8667 436.584 73.4L437.884 85.7C436.218 89.3667 433.784 92.3333 430.584 94.6C427.384 96.8667 423.518 98 418.984 98ZM436.884 97V85H436.584V46H451.584V97H436.884ZM463.617 97V25H478.617V97H463.617ZM499.117 97V65.4C499.117 62.6 498.384 60.5 496.917 59.1C495.517 57.7 493.451 57 490.717 57C488.384 57 486.284 57.5333 484.417 58.6C482.617 59.6667 481.184 61.1333 480.117 63C479.117 64.8667 478.617 67.0667 478.617 69.6L477.317 57.3C478.984 53.5667 481.417 50.6 484.617 48.4C487.884 46.1333 491.884 45 496.617 45C502.284 45 506.617 46.6 509.617 49.8C512.617 52.9333 514.117 57.1667 514.117 62.5V97H499.117ZM521.82 75.8V63.8H558.42V75.8H521.82ZM583.242 98C579.642 98 576.542 97.2333 573.942 95.7C571.409 94.1 569.476 92 568.142 89.4C566.809 86.7333 566.142 83.7667 566.142 80.5V46H581.142V77.6C581.142 80.4 581.842 82.5 583.242 83.9C584.642 85.3 586.609 86 589.142 86C591.409 86 593.409 85.4667 595.142 84.4C596.876 83.3333 598.242 81.8667 599.242 80C600.309 78.0667 600.842 75.8667 600.842 73.4L602.142 85.7C600.476 89.3667 598.042 92.3333 594.842 94.6C591.642 96.8667 587.776 98 583.242 98ZM601.142 97V85H600.842V46H615.842V97H601.142ZM627.875 97V25H642.875V97H627.875ZM663.375 97V65.4C663.375 62.6 662.642 60.5 661.175 59.1C659.775 57.7 657.708 57 654.975 57C652.642 57 650.542 57.5333 648.675 58.6C646.875 59.6667 645.442 61.1333 644.375 63C643.375 64.8667 642.875 67.0667 642.875 69.6L641.575 57.3C643.242 53.5667 645.675 50.6 648.875 48.4C652.142 46.1333 656.142 45 660.875 45C666.542 45 670.875 46.6 673.875 49.8C676.875 52.9333 678.375 57.1667 678.375 62.5V97H663.375Z" fill="url(#paint0_linear_102_37)"/>
<path d="M15 96.5L90.5 16M90.5 96.5L15 16" stroke="url(#paint1_linear_102_37)" stroke-width="30" stroke-linecap="round"/>
<defs>
<linearGradient id="paint0_linear_102_37" x1="529.326" y1="1.36347e-06" x2="436.542" y2="208.096" gradientUnits="userSpaceOnUse">
<stop stop-color="#00D0FF"/>
<stop offset="1" stop-color="#5E00FF"/>
</linearGradient>
<linearGradient id="paint1_linear_102_37" x1="1.5" y1="16" x2="91" y2="97" gradientUnits="userSpaceOnUse">
<stop stop-color="#5FEEF3"/>
<stop offset="1" stop-color="#0012D9"/>
</linearGradient>
</defs>
</svg>
